<?xml version="1.0" standalone="no"?>
<!DOCTYPE svg PUBLIC "-//W3C//DTD SVG 20010904//EN"
 "http://www.w3.org/TR/2001/REC-SVG-20010904/DTD/svg10.dtd">
<svg version="1.0" xmlns="http://www.w3.org/2000/svg"
 width="512.000000pt" height="512.000000pt" viewBox="0 0 512.000000 512.000000"
 preserveAspectRatio="xMidYMid meet">

<g transform="translate(0.000000,512.000000) scale(0.100000,-0.100000)"
fill="#000000" stroke="none">
<path d="M2535 5113 c-36 -10 -77 -45 -91 -79 -10 -25 -14 -86 -14 -240 l0
-207 -63 60 c-95 92 -140 109 -211 79 -40 -17 -92 -78 -100 -118 -14 -70 2
-92 236 -325 306 -304 288 -303 551 -45 93 92 192 194 219 226 49 58 50 61 46
116 -6 89 -57 141 -145 148 -61 5 -72 -1 -162 -84 l-61 -56 0 203 c0 230 -10
273 -69 304 -34 17 -105 27 -136 18z"/>
<path d="M1654 3850 c-25 -13 -49 -35 -62 -59 l-22 -39 0 -1192 0 -1192 22
-39 c14 -25 37 -46 63 -59 41 -20 57 -20 918 -18 867 3 876 3 903 24 15 11 37
33 48 48 21 27 21 37 24 797 2 639 0 774 -12 802 -21 53 -769 912 -810 931
-30 14 -94 16 -533 16 -479 0 -500 -1 -539 -20z m856 -670 c6 -421 4 -411 81
-451 35 -18 61 -19 344 -19 l305 0 0 -575 0 -575 -680 0 -680 0 0 1000 0 1000
313 -2 312 -3 5 -375z m421 -15 c52 -60 100 -118 108 -127 13 -17 6 -18 -103
-18 l-116 0 0 137 c0 75 4 133 8 128 5 -6 51 -59 103 -120z"/>
<path d="M671 3113 c-51 -25 -91 -87 -91 -140 0 -57 16 -86 84 -153 31 -30 56
-58 56 -62 0 -4 -96 -8 -212 -8 -193 0 -216 -2 -245 -20 -49 -30 -68 -65 -68
-131 0 -63 17 -94 69 -133 25 -19 44 -21 243 -24 l215 -3 -70 -73 c-74 -76
-91 -114 -77 -175 9 -43 76 -108 119 -117 85 -15 94 -9 333 229 310 310 310
283 5 589 -113 114 -220 214 -238 223 -41 19 -80 19 -123 -2z"/>
<path d="M4331 3114 c-44 -19 -426 -397 -452 -446 -23 -44 -24 -87 -5 -131 8
-18 110 -127 227 -244 180 -177 220 -213 251 -218 126 -23 229 107 172 218 -9
17 -41 57 -71 88 l-55 58 215 3 c236 3 241 5 290 70 26 34 27 120 3 166 -35
67 -56 72 -293 72 -117 0 -213 4 -213 8 0 4 29 37 65 72 70 69 91 112 80 166
-12 64 -95 135 -157 134 -13 -1 -38 -7 -57 -16z"/>
<path d="M2515 1050 c-55 -27 -429 -404 -449 -452 -21 -49 -20 -63 5 -115 28
-57 80 -93 137 -93 57 0 74 10 155 88 l67 66 0 -212 c0 -237 5 -263 61 -303
42 -30 127 -32 177 -5 62 33 72 72 72 305 l0 204 69 -66 c70 -68 103 -87 148
-87 74 0 153 81 153 157 0 24 -6 56 -14 71 -22 41 -427 440 -459 452 -42 15
-77 12 -122 -10z"/>
</g>
</svg>
